<?xml version="1.0" standalone="no"?><!DOCTYPE svg PUBLIC "-//W3C//DTD SVG 1.1//EN" "http://www.w3.org/Graphics/SVG/1.1/DTD/svg11.dtd"><svg t="1571032466789" class="icon" viewBox="0 0 1024 1024" version="1.1" xmlns="http://www.w3.org/2000/svg" p-id="5856" width="20" height="20" xmlns:xlink="http://www.w3.org/1999/xlink"><defs><style type="text/css"></style></defs><path d="M209 879.92H105a28 28 0 0 1-28-28V172.07a28 28 0 0 1 28-28h104a28 28 0 0 1 28 28v679.85a28 28 0 0 1-28 28z m-100-32h96V176.07h-96zM401 879.92H297a28 28 0 0 1-28-28V172.07a28 28 0 0 1 28-28h104a28 28 0 0 1 28 28v679.85a28 28 0 0 1-28 28z m-100-32h96V176.07h-96z" fill="#333333" p-id="5857"></path><path d="M829 879.93a28.21 28.21 0 0 1-7.32-1 27.75 27.75 0 0 1-17-13l-339.9-588.77A28 28 0 0 1 475 238.91l90.09-52a28 28 0 0 1 38.25 10.25l339.95 588.76a28 28 0 0 1-10.24 38.25l-90.09 52a27.81 27.81 0 0 1-13.96 3.76zM494.49 264.62l335.93 581.85 83.16-48-335.93-581.86z" fill="#E72418" p-id="5858"></path></svg>