<?xml version="1.0" standalone="no"?><!DOCTYPE svg PUBLIC "-//W3C//DTD SVG 1.1//EN" "http://www.w3.org/Graphics/SVG/1.1/DTD/svg11.dtd"><svg t="1571032805740" class="icon" viewBox="0 0 1024 1024" version="1.1" xmlns="http://www.w3.org/2000/svg" p-id="10442" xmlns:xlink="http://www.w3.org/1999/xlink" width="20" height="20"><defs><style type="text/css"></style></defs><path d="M85.982067 266.298495l858.55473 0 0 721.134754-858.55473 0 0-721.134754Z" fill="#FFFFFF" p-id="10443"></path><path d="M280.834979 23.208901l467.21919 0 0 322.931124-467.21919 0 0-322.931124Z" fill="#FFFFFF" p-id="10444"></path><path d="M754.631236 37.67263v348.817416a14.449178 14.449178 0 0 1-22.699614 11.800889l-205.082291-134.786239a14.449178 14.449178 0 0 1-1.164082-22.714166L730.709335 26.773905a14.449178 14.449178 0 0 1 23.921901 10.898725z" fill="#65A347" p-id="10445"></path><path d="M694.957441 61.740042v301.36649c0 10.112969-9.821949 16.006139-16.951956 10.185725L525.306922 256.854873c-5.704006-4.656331-6.140537-14.303668-0.873062-19.614795L677.132423 52.383727c6.969946-7.086354 17.825018-1.338695 17.825018 9.356315zM335.372259 81.485797v277.60465c0 9.312663 9.196254 14.75475 15.860629 9.399968l138.234834-113.832748a12.528441 12.528441 0 0 0 0.814858-18.072386l-138.234834-163.728248c-6.518864-6.46066-16.675486-1.178634-16.675487 8.628764z" fill="#9BD37A" p-id="10446"></path><path d="M812.791724 252.896992h78.924815c34.529607 0 62.569451 32.143237 62.569451 71.794807v604.348145c0 39.651571-27.996192 71.794808-62.569451 71.794808H246.465434c-34.529607 0-62.569451-32.143237-62.569451-71.794808V324.691799c0-39.651571 27.996192-71.794808 62.569451-71.794807h31.357481l-0.087306 148.056783L512.123684 252.896992 754.631236 410.339193V252.896992h58.204141" fill="#FFAC1F" p-id="10447"></path><path d="M748.054169 410.339193V252.896992h35.155301c29.553152 0 53.518707 32.143237 53.518707 71.794807v604.348145c0 39.651571-23.965555 71.794808-53.518707 71.794808H230.895827c-29.553152 0-53.518707-32.143237-53.518708-71.794808V324.691799c0-39.651571 23.965555-71.794808 53.518708-71.794807h40.277265v148.056783l234.271667-148.056783z" fill="#FECD57" p-id="10448"></path><path d="M882.44753 1024H141.55247A95.076464 95.076464 0 0 1 46.577864 929.039944V324.691799a95.076464 95.076464 0 0 1 94.974606-94.960055h123.116309a23.165248 23.165248 0 0 1 0 46.345047H141.55247a48.687764 48.687764 0 0 0-48.629559 48.629559v604.333594a48.687764 48.687764 0 0 0 48.629559 48.62956h740.89506a48.687764 48.687764 0 0 0 48.629559-48.62956V591.543234a23.165248 23.165248 0 1 1 46.345047 0v337.49671a95.076464 95.076464 0 0 1-94.974606 94.960056zM954.242337 494.851605a23.165248 23.165248 0 0 1-23.165248-23.165248v-146.965456a48.687764 48.687764 0 0 0-48.629559-48.629559h-123.465534a23.165248 23.165248 0 0 1 0-46.345047h123.465534a95.076464 95.076464 0 0 1 94.974606 94.960055v146.965456a23.165248 23.165248 0 0 1-23.179799 23.179799z" fill="#231815" p-id="10449"></path><path d="M755.766217 3.434044a36.464894 36.464894 0 0 0-19.745755-3.055717V0H300.129652v0.84396a37.745385 37.745385 0 0 0-45.573842 36.82867v348.817416a37.716283 37.716283 0 0 0 37.716283 37.658079 36.901425 36.901425 0 0 0 21.244511-6.678925l198.519774-135.004505 0.756653-0.56749c0.436531 0.334674 0.873062 0.669348 1.324145 0.974919l204.427493 134.364259a37.585324 37.585324 0 0 0 59.237264-30.760888V37.67263a37.236099 37.236099 0 0 0-22.015716-34.238586z m-242.856777 217.334262l-161.516491-174.394157h328.475069z m-212.008583 149.235417v-309.93705L477.041138 250.277805z m430.55058 0.27647l-182.688247-120.089694L731.436886 59.368224z" fill="#231815" p-id="10450"></path><path d="M510.683131 1001.111222A23.165248 23.165248 0 0 1 487.47423 977.989627V296.913873a23.165248 23.165248 0 0 1 46.345047 0v681.075754a23.165248 23.165248 0 0 1-23.136146 23.121595zM826.862575 565.802453H651.246131a23.165248 23.165248 0 1 1 0-46.345047h175.616444a23.165248 23.165248 0 1 1 0 46.345047z" fill="#231815" p-id="10451"></path></svg>