<?xml version="1.0" standalone="no"?><!DOCTYPE svg PUBLIC "-//W3C//DTD SVG 1.1//EN" "http://www.w3.org/Graphics/SVG/1.1/DTD/svg11.dtd"><svg t="1571033085948" class="icon" viewBox="0 0 1024 1024" version="1.1" xmlns="http://www.w3.org/2000/svg" p-id="16815" xmlns:xlink="http://www.w3.org/1999/xlink" width="20" height="20"><defs><style type="text/css"></style></defs><path d="M491.52 276.48h40.96v122.88h-40.96z" p-id="16816" fill="#13227a"></path><path d="M348.16 378.88h1.8432a122.88 122.88 0 0 1 121.0368-102.4h81.92a122.88 122.88 0 0 1 121.0368 102.4H675.84a245.76 245.76 0 0 1 40.96 3.4816 163.84 163.84 0 0 0-163.84-146.8416h-81.92a163.84 163.84 0 0 0-163.84 146.8416 245.76 245.76 0 0 1 40.96-3.4816z" p-id="16817" fill="#13227a"></path><path d="M143.36 706.56v-81.92a204.8 204.8 0 0 1 204.8-204.8h327.68a204.8 204.8 0 0 1 204.8 204.8v81.92h40.96v-81.92a245.76 245.76 0 0 0-245.76-245.76H348.16a245.76 245.76 0 0 0-245.76 245.76v81.92z" p-id="16818" fill="#13227a"></path><path d="M307.2 583.68a102.4 102.4 0 1 0 102.4 102.4 102.4 102.4 0 0 0-102.4-102.4z m0 163.84a61.44 61.44 0 1 1 61.44-61.44 61.44 61.44 0 0 1-61.44 61.44zM716.8 583.68a102.4 102.4 0 1 0 102.4 102.4 102.4 102.4 0 0 0-102.4-102.4z m0 163.84a61.44 61.44 0 1 1 61.44-61.44 61.44 61.44 0 0 1-61.44 61.44z" p-id="16819" fill="#13227a"></path><path d="M614.4 686.08a102.4 102.4 0 0 1 2.048-20.48H491.52v40.96h124.928a102.4 102.4 0 0 1-2.048-20.48zM817.152 665.6a102.4 102.4 0 0 1 0 40.96H921.6v-40.96zM204.8 686.08a102.4 102.4 0 0 1 2.048-20.48H102.4v40.96h104.448a102.4 102.4 0 0 1-2.048-20.48zM407.552 665.6a102.4 102.4 0 0 1 0 40.96H450.56v-40.96z" p-id="16820" fill="#13227a"></path></svg>