<?xml version="1.0" standalone="no"?><!DOCTYPE svg PUBLIC "-//W3C//DTD SVG 1.1//EN" "http://www.w3.org/Graphics/SVG/1.1/DTD/svg11.dtd"><svg t="1571032870850" class="icon" viewBox="0 0 1024 1024" version="1.1" xmlns="http://www.w3.org/2000/svg" p-id="11090" xmlns:xlink="http://www.w3.org/1999/xlink" width="20" height="20"><defs><style type="text/css"></style></defs><path d="M127.971556 85.333333H626.346667c41.301333 0 76.657778 33.194667 79.018666 74.552889l39.480889 687.445334C747.719111 897.507556 712.675556 938.666667 666.453333 938.666667H108.828444C62.634667 938.666667 26.538667 897.507556 28.188444 847.331556l22.584889-687.445334A77.539556 77.539556 0 0 1 127.971556 85.333333z" fill="#F1B52A" p-id="11091"></path><path d="M844.771556 340.081778h51.598222c28.501333 0 53.703111 23.694222 56.291555 53.134222l42.922667 484.295111c2.986667 33.649778-19.541333 61.155556-50.318222 61.155556h-55.779556c-30.776889 0-57.6-27.505778-59.875555-61.127111l-32.824889-484.295112c-2.019556-29.468444 19.484444-53.162667 47.985778-53.162666z" fill="#F7DBAB" p-id="11092"></path><path d="M382.606222 529.436444c-116.878222 0-210.176-98.048-208.327111-215.637333 0.341333-21.646222 17.777778-39.082667 38.940445-39.082667 21.219556 0 38.286222 17.436444 38.200888 39.082667-0.369778 73.016889 57.912889 133.319111 130.190223 133.319111s129.080889-60.273778 126.919111-133.319111c-0.625778-21.646222 16.014222-39.082667 37.233778-39.082667s39.054222 17.436444 39.907555 39.082667c4.721778 117.589333-86.129778 215.637333-203.064889 215.637333z" fill="#FFFFFF" p-id="11093"></path></svg>