<?xml version="1.0" standalone="no"?><!DOCTYPE svg PUBLIC "-//W3C//DTD SVG 1.1//EN" "http://www.w3.org/Graphics/SVG/1.1/DTD/svg11.dtd"><svg t="1571033613824" class="icon" viewBox="0 0 1024 1024" version="1.1" xmlns="http://www.w3.org/2000/svg" p-id="21651" xmlns:xlink="http://www.w3.org/1999/xlink" width="20" height="20"><defs><style type="text/css"></style></defs><path d="M953.6 243.2l-70.4 0-12.8-89.6c0-38.4-32-70.4-70.4-70.4l-384 0c-38.4 0-70.4 32-70.4 70.4L320 243.2 236.8 243.2c0-19.2-19.2-38.4-38.4-38.4L128 204.8c-19.2 0-38.4 19.2-38.4 38.4L70.4 243.2C32 243.2 0 275.2 0 320l0 492.8c0 38.4 32 70.4 70.4 70.4l876.8 0c38.4 0 70.4-32 70.4-70.4L1017.6 320C1024 275.2 992 243.2 953.6 243.2zM166.4 364.8C134.4 364.8 115.2 345.6 115.2 320c0-25.6 25.6-51.2 51.2-51.2S217.6 288 217.6 320C217.6 345.6 192 364.8 166.4 364.8zM608 819.2c-153.6 0-275.2-121.6-275.2-275.2 0-153.6 121.6-275.2 275.2-275.2s275.2 121.6 275.2 275.2C883.2 697.6 761.6 819.2 608 819.2zM608 345.6c-108.8 0-198.4 89.6-198.4 198.4s89.6 198.4 198.4 198.4 198.4-89.6 198.4-198.4S716.8 345.6 608 345.6z" p-id="21652" fill="#2c2c2c"></path></svg>