<?xml version="1.0" standalone="no"?><!DOCTYPE svg PUBLIC "-//W3C//DTD SVG 1.1//EN" "http://www.w3.org/Graphics/SVG/1.1/DTD/svg11.dtd"><svg t="1571033005513" class="icon" viewBox="0 0 1024 1024" version="1.1" xmlns="http://www.w3.org/2000/svg" p-id="15836" xmlns:xlink="http://www.w3.org/1999/xlink" width="20" height="20"><defs><style type="text/css"></style></defs><path d="M508.426103 959.480544c-119.92944 0-232.674247-46.703695-317.478701-131.507126-84.811618-84.803431-131.514289-197.548238-131.514289-317.478701s46.702672-232.688573 131.514289-317.479725C275.744693 108.211561 388.49564 61.495586 508.426103 61.495586c119.930463 0 232.67527 46.715975 317.479725 131.520429 175.049828 175.064155 175.049828 459.895295 0 634.957403C741.101373 912.777873 628.356566 959.480544 508.426103 959.480544zM508.426103 142.052297c-98.413404 0-190.94075 38.337143-260.516362 107.919918-69.595055 69.581752-107.918895 162.109098-107.918895 260.522502 0 98.401124 38.324864 190.92847 107.912755 260.521478 69.595055 69.584821 162.109098 107.907639 260.522502 107.907639 98.416474 0 190.92847-38.322817 260.525572-107.907639 143.634328-143.646608 143.634328-377.396349 0-521.045003C699.354574 180.38944 606.827227 142.052297 508.426103 142.052297z" p-id="15837"></path><path d="M190.633247 792.55986c-19.660782 0-36.870746-14.409175-39.800471-34.44244-3.225461-22.014386 12.008498-42.467207 34.016745-45.692668 129.633453-18.97312 262.046205-98.466616 363.291097-218.095203 80.623225-95.240131 133.906779-207.841675 150.020782-317.072449 3.238764-22.001083 23.587208-37.328164 45.731554-33.95944 22.002107 3.252067 37.210483 23.718191 33.95944 45.732577-18.276249 123.876332-78.026074 250.794953-168.220283 357.350804C495.878322 680.773891 345.308025 770.350023 196.519304 792.141328 194.54023 792.428877 192.573435 792.55986 190.633247 792.55986z" p-id="15838"></path><path d="M555.930023 930.36032c-2.780323 0-5.599532-0.287549-8.417717-0.890276-21.765723-4.627391-35.650965-26.025747-31.021527-47.777143 22.655999-106.476033-9.702989-215.943191-86.562495-292.817022-77.461209-77.44893-187.624215-109.637026-294.757211-86.140892-21.725814 4.680603-43.215244-8.994861-47.967478-30.720675-4.765537-21.724791 8.981559-43.201941 30.714536-47.974641 134.063345-29.382191 271.994788 10.921747 368.968399 107.880009 96.235808 96.252181 136.76385 233.265718 108.403942 366.527814C591.251483 917.38275 574.534753 930.36032 555.930023 930.36032z" p-id="15839"></path><path d="M800.206516 616.462167c-104.877629 0-206.190059-41.209564-282.286178-117.307729-96.237855-96.251158-136.76692-233.265718-108.405989-366.515534 4.641717-21.765723 26.077935-35.703153 47.777143-31.022551 21.765723 4.628414 35.650965 26.02677 31.021527 47.778166-22.655999 106.464777 9.704013 215.931934 86.562495 292.803719 77.447906 77.44893 187.664124 109.703541 294.742884 86.141916 21.699208-4.746094 43.215244 8.981559 47.986921 30.706349 4.761444 21.739117-8.979512 43.214221-30.705326 47.987944C858.028433 613.367689 828.987003 616.462167 800.206516 616.462167z" p-id="15840"></path></svg>