<?xml version="1.0" standalone="no"?><!DOCTYPE svg PUBLIC "-//W3C//DTD SVG 1.1//EN" "http://www.w3.org/Graphics/SVG/1.1/DTD/svg11.dtd"><svg t="1571029573717" class="icon" viewBox="0 0 1024 1024" version="1.1" xmlns="http://www.w3.org/2000/svg" p-id="4407" xmlns:xlink="http://www.w3.org/1999/xlink" width="200" height="200"><defs><style type="text/css"></style></defs><path d="M406.109091 251.578182v488.727273a23.272727 23.272727 0 0 0 23.272727 23.272727h302.545455a372.363636 372.363636 0 0 0-325.818182-512z m116.363636 465.454545v-46.545454h186.181818v46.545454z" fill="#EDF6FF" p-id="4408"></path><path d="M359.563636 739.374545V252.043636a372.363636 372.363636 0 1 0 349.090909 557.149091h-279.272727a69.818182 69.818182 0 0 1-69.818182-69.818182z" fill="#EDF6FF" p-id="4409"></path><path d="M801.745455 64.465455h-372.363637a69.818182 69.818182 0 0 0-69.818182 69.818181v605.090909a69.818182 69.818182 0 0 0 69.818182 69.818182h372.363637a69.818182 69.818182 0 0 0 69.818181-69.818182v-605.090909a69.818182 69.818182 0 0 0-69.818181-69.818181z m23.272727 674.90909a23.272727 23.272727 0 0 1-23.272727 23.272728h-372.363637a23.272727 23.272727 0 0 1-23.272727-23.272728v-605.090909a23.272727 23.272727 0 0 1 23.272727-23.272727h69.818182a43.752727 43.752727 0 0 0 43.52 42.589091h145.454545a43.752727 43.752727 0 0 0 43.52-42.589091h69.818182a23.272727 23.272727 0 0 1 23.272728 23.272727z" fill="#040405" p-id="4410"></path><path d="M522.472727 669.556364h186.181818v46.545454h-186.181818z" fill="#2394FB" p-id="4411"></path></svg>